<svg width="106" height="121" viewBox="0 0 106 121" fill="none" xmlns="http://www.w3.org/2000/svg">
<path d="M105.77 84.9937V5.66624C105.77 2.5262 103.244 0 100.104 0H22.665C10.152 0 0 10.152 0 22.665V98.2149C0 110.728 10.152 120.88 22.665 120.88H100.104C103.244 120.88 105.77 118.354 105.77 115.214V111.436C105.77 109.665 104.944 108.06 103.669 107.021C102.677 103.385 102.677 93.0208 103.669 89.385C104.944 88.3698 105.77 86.7644 105.77 84.9937ZM30.22 31.6365C30.22 30.8574 30.8574 30.22 31.6365 30.22H81.6884C82.4675 30.22 83.1049 30.8574 83.1049 31.6365V36.3584C83.1049 37.1375 82.4675 37.775 81.6884 37.775H31.6365C30.8574 37.775 30.22 37.1375 30.22 36.3584V31.6365ZM30.22 46.7465C30.22 45.9674 30.8574 45.33 31.6365 45.33H81.6884C82.4675 45.33 83.1049 45.9674 83.1049 46.7465V51.4684C83.1049 52.2475 82.4675 52.8849 81.6884 52.8849H31.6365C30.8574 52.8849 30.22 52.2475 30.22 51.4684V46.7465ZM90.0461 105.77H22.665C18.4861 105.77 15.11 102.394 15.11 98.2149C15.11 94.0597 18.5097 90.6599 22.665 90.6599H90.0461C89.5975 94.6971 89.5975 101.733 90.0461 105.77Z" fill="#CD6799"/>
</svg>
